<svg width="160" height="160" viewBox="0 0 160 160" fill="none" xmlns="http://www.w3.org/2000/svg">
<g clip-path="url(#clip0)" filter="url(#filter0_d)">
<path d="M135 75C135 108.138 108.138 135 75 135C41.8625 135 15 108.138 15 75C15 41.8625 41.8625 15 75 15C108.138 15 135 41.8625 135 75Z" fill="white"/>
<g filter="url(#filter1_d)">
<path d="M115.842 115.364H73.6541C72.3595 115.364 71.3103 114.315 71.3103 113.02V89.5825C71.3103 88.288 72.3595 87.2388 73.6541 87.2388H115.842C117.135 87.2388 118.185 88.288 118.185 89.5825V113.02C118.185 114.315 117.135 115.364 115.842 115.364Z" fill="#3691BB"/>
</g>
<g filter="url(#filter2_d)">
<path d="M55.4461 39.5626C53.8348 39.7631 52.6226 41.13 52.6162 42.7551C52.6107 44.3444 53.7625 45.7022 55.3326 45.9558L56.6949 46.1746C56.8899 47.3474 57.1875 48.4845 57.5793 49.5776L56.542 50.3622C55.2475 51.3418 54.8812 53.1317 55.6878 54.5416C56.4779 55.9213 58.1543 56.521 59.6402 55.9552L60.932 55.4635C61.6781 56.3681 62.5048 57.2039 63.3993 57.9629L62.8912 59.1659C62.2595 60.6628 62.8372 62.3959 64.2407 63.2135C65.6149 64.0127 67.3672 63.6941 68.3706 62.4609L69.2404 61.3934C70.328 61.7999 71.4614 62.1139 72.6306 62.3236L72.7917 63.6163C72.9931 65.2285 74.36 66.4398 75.9842 66.4462C77.5744 66.4526 78.9322 65.3 79.1848 63.7298L79.4036 62.3675C80.5764 62.1725 81.7135 61.8759 82.8067 61.4831L83.5913 62.5204C84.5709 63.8159 86.3607 64.1821 87.7707 63.3746C89.1504 62.5854 89.75 60.9082 89.1842 59.4223L88.6926 58.1314C89.5962 57.3843 90.433 56.5585 91.192 55.6631L92.395 56.1712C93.8919 56.8039 95.624 56.2252 96.4416 54.8217C97.2418 53.4485 96.9232 51.6961 95.69 50.6918L94.6225 49.823C95.029 48.7353 95.343 47.6019 95.5526 46.4328L96.8454 46.2716C98.4576 46.0702 99.6688 44.7033 99.6753 43.0792C99.6817 41.4889 98.529 40.1312 96.9589 39.8785L95.5966 39.6588C95.4016 38.4869 95.104 37.3489 94.7122 36.2567L95.7495 35.4721C97.0449 34.4915 97.4102 32.7026 96.6037 31.2927C95.8145 29.913 94.1372 29.3124 92.6513 29.8791L91.3604 30.3708C90.6134 29.4662 89.7876 28.6294 88.8922 27.8714L89.4003 26.6674C90.0329 25.1715 89.4543 23.4384 88.0508 22.6208C86.6766 21.8206 84.9252 22.1402 83.9209 23.3725L83.052 24.4409C81.9644 24.0344 80.831 23.7204 79.6618 23.5098L79.4998 22.2171C79.2993 20.6057 77.9324 19.3936 76.3073 19.3881C74.718 19.3817 73.3603 20.5334 73.1076 22.1035L72.8878 23.4658C71.716 23.6609 70.578 23.9584 69.4857 24.3502L68.7011 23.3139C67.7206 22.0184 65.9317 21.6522 64.5208 22.4588C63.1411 23.2489 62.5415 24.9252 63.1073 26.4111L63.5998 27.7029C62.6953 28.45 61.8585 29.2758 61.0995 30.1703L59.8965 29.6621C58.3996 29.0304 56.6674 29.6081 55.8499 31.0116C55.0497 32.3858 55.3683 34.1381 56.6015 35.1416L57.669 36.0113C57.2625 37.099 56.9494 38.2324 56.7389 39.4015L55.4461 39.5626ZM76.1746 35.5215C80.2588 35.5371 83.5565 38.8604 83.5409 42.9446C83.5254 47.0288 80.202 50.3274 76.1178 50.3109C72.0337 50.2963 68.735 46.972 68.7515 42.8878C68.767 38.8037 72.0904 35.5059 76.1746 35.5215Z" fill="#0ED1B2"/>
</g>
<path d="M62.3849 42.8641C62.3556 50.4648 68.4933 56.6492 76.094 56.6776C83.6938 56.7069 89.8782 50.5692 89.9075 42.9685C89.9368 35.3678 83.7982 29.1834 76.1984 29.155C68.5976 29.1257 62.4133 35.2643 62.3849 42.8641ZM76.1819 33.4864C81.3894 33.5065 85.5963 37.7445 85.5761 42.952C85.556 48.1605 81.318 52.3664 76.1105 52.3472C70.902 52.327 66.6961 48.089 66.7153 42.8806C66.7355 37.6731 70.9734 33.4662 76.1819 33.4864Z" fill="#0AB59E"/>
<path d="M78.2363 56.5191C77.5378 56.6253 76.8228 56.6811 76.094 56.6775C68.4933 56.6491 62.3556 50.4647 62.3849 42.864C62.4133 35.2642 68.5977 29.1265 76.1984 29.1549C76.8896 29.1576 77.5698 29.2126 78.2336 29.3133C71.6464 30.3176 66.5881 35.993 66.5624 42.864C66.5368 49.7726 71.6052 55.5102 78.2363 56.5191Z" fill="#01988C"/>
<path d="M119.592 88.0591H72.7166C71.422 88.0591 70.3728 87.0099 70.3728 85.7153V50.5591C70.3728 49.2645 71.422 48.2153 72.7166 48.2153H119.592C120.885 48.2153 121.935 49.2645 121.935 50.5591V85.7153C121.935 87.0099 120.885 88.0591 119.592 88.0591Z" fill="#F18BC3"/>
<g filter="url(#filter3_d)">
<path d="M121.935 50.5591V85.7153C121.935 87.0099 120.885 88.0591 119.592 88.0591H96.2355L90.9108 97.4561C90.3853 98.3844 89.4011 98.9575 88.3345 98.9575C86.6985 98.9575 85.3728 97.6318 85.3728 95.9967V88.0591H77.4041C76.1095 88.0591 75.0603 87.0099 75.0603 85.7153V50.5591C75.0603 49.2645 76.1095 48.2153 77.4041 48.2153H119.592C120.885 48.2153 121.935 49.2654 121.935 50.5591Z" fill="#F5A6D1"/>
</g>
<path d="M115.781 58.4106V60.9888C115.781 61.2479 115.572 61.4575 115.312 61.4575H90.0778C89.8196 61.4575 89.6091 61.2479 89.6091 60.9888V58.4106C89.6091 58.1525 89.8196 57.9419 90.0778 57.9419H115.312C115.572 57.9419 115.781 58.1525 115.781 58.4106ZM115.312 72.0044H86.9531C86.694 72.0044 86.4844 72.215 86.4844 72.4731V75.0513C86.4844 75.3104 86.694 75.52 86.9531 75.52H115.312C115.572 75.52 115.781 75.3104 115.781 75.0513V72.4731C115.781 72.215 115.572 72.0044 115.312 72.0044ZM115.312 79.0356H94.7653C94.5071 79.0356 94.2966 79.2462 94.2966 79.5044V82.0825C94.2966 82.3416 94.5071 82.5513 94.7653 82.5513H115.312C115.572 82.5513 115.781 82.3416 115.781 82.0825V79.5044C115.781 79.2462 115.572 79.0356 115.312 79.0356ZM115.312 64.9731H81.0938C80.8347 64.9731 80.625 65.1837 80.625 65.4419V68.02C80.625 68.2791 80.8347 68.4888 81.0938 68.4888H115.312C115.572 68.4888 115.781 68.2791 115.781 68.02V65.4419C115.781 65.1837 115.572 64.9731 115.312 64.9731Z" fill="#EC74B6"/>
<path d="M84.4353 117.708H25.8416C24.547 117.708 23.4978 116.658 23.4978 115.364V82.5513C23.4978 81.2567 24.547 80.2075 25.8416 80.2075H84.4353C85.729 80.2075 86.7791 81.2567 86.7791 82.5513V115.364C86.7791 116.658 85.729 117.708 84.4353 117.708Z" fill="#FC6930"/>
<g filter="url(#filter4_d)">
<path d="M86.7793 82.5513V124.122C86.7793 125.757 85.4527 127.083 83.8176 127.083C82.751 127.083 81.7668 126.509 81.2404 125.581L76.779 117.708H30.7087C29.4151 117.708 28.365 116.658 28.365 115.364V82.5513C28.365 81.2567 29.4151 80.2075 30.7087 80.2075H84.4356C85.7292 80.2075 86.7793 81.2576 86.7793 82.5513Z" fill="#FD7D43"/>
</g>
<path d="M83.0292 94.7388V97.3169C83.0292 97.576 82.8186 97.7856 82.5604 97.7856H67.0917C66.8326 97.7856 66.6229 97.576 66.6229 97.3169V94.7388C66.6229 94.4797 66.8326 94.27 67.0917 94.27H82.5604C82.8186 94.27 83.0292 94.4806 83.0292 94.7388ZM82.5604 101.301H57.6562C57.3972 101.301 57.1875 101.511 57.1875 101.77V104.348C57.1875 104.607 57.3972 104.817 57.6562 104.817H82.5604C82.8186 104.817 83.0292 104.607 83.0292 104.348V101.77C83.0292 101.512 82.8186 101.301 82.5604 101.301ZM82.5604 108.333H62.7017C62.4435 108.333 62.233 108.542 62.233 108.801V111.379C62.233 111.638 62.4435 111.848 62.7017 111.848H82.5604C82.8186 111.848 83.0292 111.638 83.0292 111.379V108.801C83.0292 108.543 82.8186 108.333 82.5604 108.333Z" fill="#FC5426"/>
<g filter="url(#filter5_d)">
<path d="M56.7519 91.712C52.9909 95.0546 50.8998 99.8914 50.8998 104.924V105.266H34.8937V104.862C34.8937 99.787 32.6772 94.9988 28.9116 91.5958C24.6663 87.7606 22.0067 82.2034 22.0314 76.0263C22.0781 64.5209 31.3927 55.2466 42.8963 55.2466C54.42 55.2475 63.7612 64.5886 63.7612 76.1115C63.7621 82.3178 61.0521 87.8897 56.7519 91.712Z" fill="#FDED32"/>
</g>
<path d="M50.8996 104.923V105.266H40.3243V104.862C40.3243 99.787 38.1078 94.9988 34.3423 91.5958C30.097 87.7597 27.4374 82.2034 27.4621 76.0254C27.5051 65.4428 35.3906 56.7471 45.6097 55.4224C55.8517 56.7526 63.7618 65.5087 63.7618 76.1124C63.7618 82.3178 61.0519 87.8897 56.7516 91.712C52.9907 95.0546 50.8996 99.8914 50.8996 104.923Z" fill="#FDF385"/>
<path d="M47.7083 60.2491C48.4829 59.231 53.4194 60.8185 56.4727 64.2509C59.0902 67.1906 60.3078 71.4634 59.331 72.1583C58.1298 73.0143 53.6071 68.4449 52.6622 67.49C52.0928 66.915 46.7461 61.5116 47.7083 60.2491Z" fill="#FDF7BD"/>
<path d="M48.1697 74.3481H37.6228C34.3919 74.3481 31.7634 76.9766 31.7634 80.2075C31.7634 82.7921 33.8664 84.895 36.4509 84.895C37.0973 84.895 37.6228 85.4214 37.6228 86.0669V101.301C37.6228 103.886 39.7258 105.989 42.3103 105.989H43.4822C46.0667 105.989 48.1697 103.886 48.1697 101.301V86.0669C48.1697 85.4214 48.6952 84.895 49.3415 84.895C51.9261 84.895 54.029 82.7921 54.029 80.2075C54.029 76.9766 51.4006 74.3481 48.1697 74.3481ZM49.3415 81.3794C46.757 81.3794 44.654 83.4824 44.654 86.0669V101.301C44.654 101.948 44.1285 102.473 43.4822 102.473H42.3103C41.6639 102.473 41.1384 101.948 41.1384 101.301V86.0669C41.1384 83.4824 39.0355 81.3794 36.4509 81.3794C35.8046 81.3794 35.2791 80.8539 35.2791 80.2075C35.2791 78.9157 36.331 77.8638 37.6228 77.8638H48.1697C49.4624 77.8638 50.5134 78.9157 50.5134 80.2075C50.5134 80.8539 49.9879 81.3794 49.3415 81.3794Z" fill="#E8CE00"/>
<g filter="url(#filter6_d)">
<path d="M53.615 103.836C53.615 105.116 52.7736 106.199 51.6137 106.564V106.695C51.6137 110.641 48.4148 113.84 44.468 113.84H41.324C37.3772 113.84 34.1783 110.641 34.1783 106.695V106.564C33.0193 106.199 32.177 105.116 32.177 103.836C32.177 102.258 33.4569 100.979 35.0353 100.979H50.7558C52.3351 100.979 53.615 102.258 53.615 103.836Z" fill="#88B9D3"/>
</g>
<path d="M53.615 103.836C53.615 105.116 52.7736 106.199 51.6137 106.564V106.695C51.6137 110.126 49.1948 112.992 45.9685 113.681C43.8198 113.222 42.0281 111.796 41.0723 109.881C40.8333 109.402 41.173 108.839 41.7076 108.839H48.1127C48.7151 108.839 49.2022 108.341 49.1838 107.734C49.1664 107.147 48.6547 106.695 48.0678 106.695H39.1808C37.6024 106.695 36.3225 105.415 36.3225 103.836C36.3225 102.258 37.6024 100.978 39.1808 100.978H50.7567C52.3351 100.979 53.615 102.258 53.615 103.836Z" fill="#B3D1E1"/>
<path d="M100.052 105.989C100.052 106.96 99.2651 107.747 98.2947 107.747C97.3233 107.747 96.5369 106.96 96.5369 105.989C96.5369 105.018 97.3233 104.231 98.2947 104.231C99.2651 104.231 100.052 105.018 100.052 105.989ZM104.154 104.231C103.183 104.231 102.396 105.018 102.396 105.989C102.396 106.96 103.183 107.747 104.154 107.747C105.125 107.747 105.912 106.96 105.912 105.989C105.912 105.018 105.125 104.231 104.154 104.231ZM110.013 104.231C109.042 104.231 108.256 105.018 108.256 105.989C108.256 106.96 109.042 107.747 110.013 107.747C110.984 107.747 111.771 106.96 111.771 105.989C111.771 105.018 110.984 104.231 110.013 104.231Z" fill="#B3D1E1"/>
</g>
<defs>
<filter id="filter0_d" x="0" y="0" width="160" height="160" filterUnits="userSpaceOnUse" color-interpolation-filters="sRGB">
<feFlood flood-opacity="0" result="BackgroundImageFix"/>
<feColorMatrix in="SourceAlpha" type="matrix" values="0 0 0 0 0 0 0 0 0 0 0 0 0 0 0 0 0 0 127 0"/>
<feOffset dx="5" dy="5"/>
<feGaussianBlur stdDeviation="10"/>
<feColorMatrix type="matrix" values="0 0 0 0 0.0980392 0 0 0 0 0.00392157 0 0 0 0 0.301961 0 0 0 0.15 0"/>
<feBlend mode="normal" in2="BackgroundImageFix" result="effect1_dropShadow"/>
<feBlend mode="normal" in="SourceGraphic" in2="effect1_dropShadow" result="shape"/>
</filter>
<filter id="filter1_d" x="67.3103" y="87.2388" width="54.875" height="36.125" filterUnits="userSpaceOnUse" color-interpolation-filters="sRGB">
<feFlood flood-opacity="0" result="BackgroundImageFix"/>
<feColorMatrix in="SourceAlpha" type="matrix" values="0 0 0 0 0 0 0 0 0 0 0 0 0 0 0 0 0 0 127 0"/>
<feOffset dy="4"/>
<feGaussianBlur stdDeviation="2"/>
<feColorMatrix type="matrix" values="0 0 0 0 0 0 0 0 0 0 0 0 0 0 0 0 0 0 0.25 0"/>
<feBlend mode="normal" in2="BackgroundImageFix" result="effect1_dropShadow"/>
<feBlend mode="normal" in="SourceGraphic" in2="effect1_dropShadow" result="shape"/>
</filter>
<filter id="filter2_d" x="48.6162" y="19.3881" width="55.0591" height="55.0582" filterUnits="userSpaceOnUse" color-interpolation-filters="sRGB">
<feFlood flood-opacity="0" result="BackgroundImageFix"/>
<feColorMatrix in="SourceAlpha" type="matrix" values="0 0 0 0 0 0 0 0 0 0 0 0 0 0 0 0 0 0 127 0"/>
<feOffset dy="4"/>
<feGaussianBlur stdDeviation="2"/>
<feColorMatrix type="matrix" values="0 0 0 0 0 0 0 0 0 0 0 0 0 0 0 0 0 0 0.25 0"/>
<feBlend mode="normal" in2="BackgroundImageFix" result="effect1_dropShadow"/>
<feBlend mode="normal" in="SourceGraphic" in2="effect1_dropShadow" result="shape"/>
</filter>
<filter id="filter3_d" x="71.0603" y="48.2153" width="54.875" height="58.7422" filterUnits="userSpaceOnUse" color-interpolation-filters="sRGB">
<feFlood flood-opacity="0" result="BackgroundImageFix"/>
<feColorMatrix in="SourceAlpha" type="matrix" values="0 0 0 0 0 0 0 0 0 0 0 0 0 0 0 0 0 0 127 0"/>
<feOffset dy="4"/>
<feGaussianBlur stdDeviation="2"/>
<feColorMatrix type="matrix" values="0 0 0 0 0 0 0 0 0 0 0 0 0 0 0 0 0 0 0.25 0"/>
<feBlend mode="normal" in2="BackgroundImageFix" result="effect1_dropShadow"/>
<feBlend mode="normal" in="SourceGraphic" in2="effect1_dropShadow" result="shape"/>
</filter>
<filter id="filter4_d" x="24.365" y="80.2075" width="66.4143" height="54.875" filterUnits="userSpaceOnUse" color-interpolation-filters="sRGB">
<feFlood flood-opacity="0" result="BackgroundImageFix"/>
<feColorMatrix in="SourceAlpha" type="matrix" values="0 0 0 0 0 0 0 0 0 0 0 0 0 0 0 0 0 0 127 0"/>
<feOffset dy="4"/>
<feGaussianBlur stdDeviation="2"/>
<feColorMatrix type="matrix" values="0 0 0 0 0 0 0 0 0 0 0 0 0 0 0 0 0 0 0.25 0"/>
<feBlend mode="normal" in2="BackgroundImageFix" result="effect1_dropShadow"/>
<feBlend mode="normal" in="SourceGraphic" in2="effect1_dropShadow" result="shape"/>
</filter>
<filter id="filter5_d" x="18.0312" y="55.2466" width="49.7299" height="58.0198" filterUnits="userSpaceOnUse" color-interpolation-filters="sRGB">
<feFlood flood-opacity="0" result="BackgroundImageFix"/>
<feColorMatrix in="SourceAlpha" type="matrix" values="0 0 0 0 0 0 0 0 0 0 0 0 0 0 0 0 0 0 127 0"/>
<feOffset dy="4"/>
<feGaussianBlur stdDeviation="2"/>
<feColorMatrix type="matrix" values="0 0 0 0 0 0 0 0 0 0 0 0 0 0 0 0 0 0 0.25 0"/>
<feBlend mode="normal" in2="BackgroundImageFix" result="effect1_dropShadow"/>
<feBlend mode="normal" in="SourceGraphic" in2="effect1_dropShadow" result="shape"/>
</filter>
<filter id="filter6_d" x="28.177" y="100.979" width="29.438" height="20.8613" filterUnits="userSpaceOnUse" color-interpolation-filters="sRGB">
<feFlood flood-opacity="0" result="BackgroundImageFix"/>
<feColorMatrix in="SourceAlpha" type="matrix" values="0 0 0 0 0 0 0 0 0 0 0 0 0 0 0 0 0 0 127 0"/>
<feOffset dy="4"/>
<feGaussianBlur stdDeviation="2"/>
<feColorMatrix type="matrix" values="0 0 0 0 0 0 0 0 0 0 0 0 0 0 0 0 0 0 0.25 0"/>
<feBlend mode="normal" in2="BackgroundImageFix" result="effect1_dropShadow"/>
<feBlend mode="normal" in="SourceGraphic" in2="effect1_dropShadow" result="shape"/>
</filter>
<clipPath id="clip0">
<rect width="120" height="120" fill="white" transform="translate(15 15)"/>
</clipPath>
</defs>
</svg>
