<svg width="76" height="14" viewBox="0 0 76 14" fill="none" xmlns="http://www.w3.org/2000/svg">
<path d="M17.615 3.8363C17.615 5.11621 16.7736 6.19928 15.6137 6.56366V6.69458C15.6137 10.126 13.1948 12.9916 9.96851 13.681C7.81977 13.2223 6.02808 11.7959 5.07227 9.88062C4.83331 9.40179 5.17298 8.83875 5.70764 8.83875H12.1127C12.7151 8.83875 13.2022 8.3407 13.1838 7.7337C13.1664 7.14685 12.6547 6.69458 12.0678 6.69458H3.18079C1.60242 6.69458 0.32251 5.41467 0.32251 3.8363C0.32251 2.25793 1.60242 0.978027 3.18079 0.978027H14.7567C16.3351 0.978943 17.615 2.25793 17.615 3.8363Z" fill="#B3D1E1"/>
<path d="M64.0525 5.98877C64.0525 6.96014 63.2651 7.74658 62.2947 7.74658C61.3233 7.74658 60.5369 6.96014 60.5369 5.98877C60.5369 5.01831 61.3233 4.23096 62.2947 4.23096C63.2651 4.23096 64.0525 5.01831 64.0525 5.98877ZM68.154 4.23096C67.1827 4.23096 66.3962 5.01831 66.3962 5.98877C66.3962 6.96014 67.1827 7.74658 68.154 7.74658C69.1245 7.74658 69.9119 6.96014 69.9119 5.98877C69.9119 5.01831 69.1245 4.23096 68.154 4.23096ZM74.0134 4.23096C73.042 4.23096 72.2556 5.01831 72.2556 5.98877C72.2556 6.96014 73.042 7.74658 74.0134 7.74658C74.9839 7.74658 75.7712 6.96014 75.7712 5.98877C75.7712 5.01831 74.9839 4.23096 74.0134 4.23096Z" fill="#B3D1E1"/>
</svg>
